<?xml version="1.0" encoding="UTF-8" standalone="no"?>
<!-- Created with Inkscape (http://www.inkscape.org/) -->

<svg
   width="35.465557mm"
   height="35.465557mm"
   viewBox="0 0 35.465557 35.465557"
   version="1.1"
   id="svg20924"
   inkscape:version="1.2.2 (b0a8486541, 2022-12-01)"
   sodipodi:docname="netbox-topology-views-icons.svg"
   xmlns:inkscape="http://www.inkscape.org/namespaces/inkscape"
   xmlns:sodipodi="http://sodipodi.sourceforge.net/DTD/sodipodi-0.dtd"
   xmlns="http://www.w3.org/2000/svg"
   xmlns:svg="http://www.w3.org/2000/svg">
  <sodipodi:namedview
     id="namedview20926"
     pagecolor="#ffffff"
     bordercolor="#666666"
     borderopacity="1.0"
     inkscape:showpageshadow="2"
     inkscape:pageopacity="0.0"
     inkscape:pagecheckerboard="0"
     inkscape:deskcolor="#d1d1d1"
     inkscape:document-units="mm"
     showgrid="false"
     inkscape:zoom="0.4723932"
     inkscape:cx="1020.3364"
     inkscape:cy="643.5317"
     inkscape:window-width="1920"
     inkscape:window-height="1133"
     inkscape:window-x="0"
     inkscape:window-y="30"
     inkscape:window-maximized="1"
     inkscape:current-layer="layer1" />
  <defs
     id="defs20921" />
  <g
     inkscape:label="Icons"
     inkscape:groupmode="layer"
     id="layer1"
     inkscape:highlight-color="#1685fc"
     transform="translate(-142.62001,-142.61999)">
    <g
       id="modem"
       transform="translate(136.25973,52.112149)"
       style="display:inline"
       inkscape:label="modem">
      <circle
         style="fill:#ffffff;fill-opacity:1;stroke:#9cc8f8;stroke-width:1.32292;stroke-miterlimit:4;stroke-dasharray:none;stroke-opacity:1"
         id="circle74116"
         cx="24.09306"
         cy="108.24062"
         r="17.071318" />
      <path
         style="font-variation-settings:normal;vector-effect:none;fill:#ffffff;fill-opacity:1;fill-rule:evenodd;stroke:#1685fc;stroke-width:1.323;stroke-linecap:round;stroke-linejoin:miter;stroke-miterlimit:4;stroke-dasharray:none;stroke-dashoffset:0;stroke-opacity:1;-inkscape-stroke:none;stop-color:#000000"
         d="m 11.23878,109.41639 c 0.06559,-0.32694 0.113253,-0.71104 0.16425,-1.01646 0.02668,-0.15701 0.05391,-0.31394 0.08214,-0.47069 0.02658,-0.14757 0.05377,-0.29504 0.08212,-0.44229 0.02647,-0.13749 0.05364,-0.27486 0.08213,-0.41195 0.02635,-0.12681 0.05347,-0.25346 0.08212,-0.37977 0.02622,-0.11562 0.05331,-0.23105 0.08214,-0.34605 0.02607,-0.10395 0.05311,-0.20776 0.08214,-0.31097 0.02591,-0.0921 0.05284,-0.18394 0.08212,-0.27502 0.02571,-0.08 0.05257,-0.15965 0.08213,-0.23829 0.02551,-0.0678 0.0522,-0.13532 0.08214,-0.20134 0.02526,-0.0557 0.05183,-0.11094 0.08214,-0.16405 0.02503,-0.0439 0.05139,-0.0872 0.08213,-0.12725 0.02483,-0.0323 0.05128,-0.064 0.08214,-0.0906 0.02494,-0.0215 0.05201,-0.0416 0.08213,-0.0549 0.0258,-0.0114 0.05396,-0.0192 0.08214,-0.0204 0.02772,-0.001 0.05591,0.004 0.08214,0.0135 0.02951,0.0108 0.05674,0.0269 0.08213,0.045 0.03017,0.0216 0.05683,0.0481 0.08214,0.0751 0.03002,0.0321 0.05662,0.0675 0.08214,0.10342 0.02962,0.0416 0.05635,0.0853 0.08213,0.12941 0.02924,0.05 0.0561,0.10148 0.08214,0.15323 0.02889,0.0574 0.05586,0.11583 0.08213,0.1745 0.02859,0.0639 0.05566,0.12842 0.08214,0.19319 0.02835,0.0693 0.05548,0.13914 0.08214,0.20914 0.02813,0.0738 0.05529,0.14809 0.08213,0.22242 0.02794,0.0774 0.05515,0.15506 0.08214,0.23279 0.02778,0.08 0.055,0.16012 0.08214,0.2403 0.02762,0.0816 0.05484,0.16329 0.08213,0.24497 0.02747,0.0822 0.05471,0.16448 0.08214,0.24669 0.02733,0.0819 0.05457,0.16382 0.08214,0.24563 0.02719,0.0807 0.05442,0.16135 0.08213,0.24185 0.02705,0.0786 0.05427,0.15707 0.08214,0.23535 0.02691,0.0756 0.05412,0.15103 0.08213,0.22618 0.02677,0.0718 0.05393,0.14347 0.08212,0.21473 0.02662,0.0673 0.05376,0.13435 0.08214,0.20089 0.02646,0.062 0.05357,0.12377 0.08214,0.18484 0.02628,0.0562 0.05332,0.11205 0.08212,0.16699 0.0261,0.0498 0.05308,0.0992 0.08213,0.14737 0.02592,0.043 0.05282,0.0855 0.08212,0.12616 0.02575,0.0358 0.05261,0.0709 0.08214,0.10363 0.02562,0.0284 0.05253,0.0559 0.08214,0.0801 0.02563,0.021 0.05273,0.0406 0.08212,0.0558 0.02596,0.0134 0.05356,0.0246 0.08213,0.0307 0.02682,0.005 0.05479,0.008 0.08212,0.005 0.02807,-0.002 0.05587,-0.01 0.08214,-0.0199 0.02911,-0.0113 0.05642,-0.0273 0.08213,-0.045 0.02958,-0.0204 0.05652,-0.0446 0.08212,-0.0698 0.02959,-0.0291 0.05646,-0.0611 0.08214,-0.0936 0.02941,-0.0374 0.0563,-0.0768 0.08214,-0.11665 0.02915,-0.045 0.0561,-0.0915 0.08212,-0.13838 0.02891,-0.0521 0.05592,-0.10524 0.08213,-0.15883 0.02866,-0.0585 0.05574,-0.11783 0.08212,-0.17742 0.02847,-0.0643 0.05559,-0.12919 0.08214,-0.1943 0.02827,-0.0693 0.05544,-0.1391 0.08214,-0.20905 0.02809,-0.0736 0.05528,-0.14753 0.08212,-0.22158 0.02793,-0.0771 0.05515,-0.15433 0.08213,-0.2317 0.02778,-0.0797 0.055,-0.15949 0.08212,-0.23937 0.02763,-0.0814 0.05488,-0.16284 0.08214,-0.24432 0.0275,-0.0821 0.05472,-0.16442 0.08213,-0.24663 0.02734,-0.082 0.05458,-0.16405 0.08212,-0.24599 0.02721,-0.0809 0.05443,-0.16189 0.08214,-0.24267 0.02706,-0.0789 0.05428,-0.15773 0.08214,-0.23635 0.02691,-0.0759 0.05407,-0.15171 0.08212,-0.2272 0.02674,-0.0719 0.05389,-0.14379 0.08213,-0.21517 0.02656,-0.0672 0.05363,-0.1341 0.08212,-0.20045 0.02636,-0.0614 0.05339,-0.12251 0.08214,-0.18282 0.02614,-0.0548 0.05305,-0.10935 0.08214,-0.16268 0.02589,-0.0475 0.05269,-0.0945 0.08212,-0.13984 0.02563,-0.0394 0.05227,-0.0785 0.08213,-0.11488 0.02537,-0.031 0.05196,-0.0613 0.08212,-0.0875 0.0253,-0.022 0.05219,-0.043 0.08214,-0.0581 0.02574,-0.013 0.05355,-0.0234 0.08214,-0.0271 0.02721,-0.003 0.0556,-10e-4 0.08212,0.005 0.02943,0.008 0.05696,0.0229 0.08213,0.04 0.03071,0.0209 0.05732,0.0477 0.08214,0.0754 0.03083,0.0343 0.05719,0.0727 0.08212,0.11147 0.0305,0.0475 0.05698,0.0976 0.08213,0.14819 0.0301,0.0605 0.05672,0.12277 0.08212,0.1854 0.02971,0.0732 0.05651,0.14766 0.08214,0.22243 0.02941,0.0858 0.05631,0.17243 0.08214,0.25936 0.02913,0.098 0.05613,0.19672 0.08212,0.29564 0.02892,0.11001 0.05598,0.22051 0.08213,0.33121 0.02871,0.12152 0.05582,0.24342 0.08212,0.36548 0.02855,0.13253 0.05572,0.26534 0.08214,0.39831 0.02841,0.14301 0.0556,0.28627 0.08214,0.42964 0.02827,0.15276 0.05549,0.30572 0.08213,0.45878 0.02815,0.16177 0.05541,0.32371 0.08214,0.48572 0.02805,0.16995 0.0553,0.34005 0.08213,0.51019 0.02795,0.17725 0.0552,0.3546 0.08212,0.532 0.02784,0.1835 0.05514,0.36709 0.08214,0.55071 0.02776,0.18877 0.05503,0.3776 0.08212,0.56647 0.02767,0.19287 0.05496,0.3858 0.08214,0.57873 0.02758,0.19582 0.05488,0.3917 0.08213,0.58756 0.0275,0.1976 0.05477,0.39524 0.08212,0.59286 0.02741,0.19808 0.05472,0.39616 0.08214,0.59423 0.02733,0.19736 0.0546,0.39471 0.08212,0.59204 0.02723,0.19526 0.05452,0.3905 0.08214,0.58571 0.02714,0.19191 0.05442,0.3838 0.08213,0.57562 0.02705,0.18725 0.0543,0.37448 0.08212,0.56162 0.02695,0.18128 0.0542,0.36251 0.08214,0.54364 0.02684,0.17402 0.05407,0.348 0.08213,0.52183 0.02672,0.16556 0.0539,0.33106 0.08212,0.49637 0.02659,0.15578 0.05377,0.31147 0.08214,0.46694 0.02645,0.1449 0.05355,0.2897 0.08212,0.43421 0.02627,0.1329 0.05333,0.26565 0.08214,0.39802 0.02608,0.11982 0.05303,0.23948 0.08213,0.35861 0.02584,0.10578 0.05262,0.21143 0.08212,0.31627 0.02555,0.0908 0.05215,0.18144 0.08214,0.27091 0.0252,0.0751 0.05142,0.15014 0.08212,0.22325 0.02475,0.0589 0.05042,0.1178 0.08214,0.1733 0.02421,0.0423 0.04929,0.085 0.08213,0.12113 0.02389,0.0262 0.04972,0.0533 0.08214,0.0677 0.0253,0.0113 0.05486,0.0169 0.08214,0.0123 0.03054,-0.005 0.05816,-0.0239 0.08213,-0.0435 0.03343,-0.0274 0.05832,-0.0643 0.08212,-0.1003 0.03261,-0.0495 0.05783,-0.10341 0.08214,-0.15744 0.03145,-0.0698 0.05732,-0.14209 0.08212,-0.21453 0.03059,-0.0893 0.05694,-0.18017 0.08213,-0.2712 0.03,-0.1084 0.05663,-0.21773 0.08214,-0.32727 0.02955,-0.12692 0.05636,-0.2545 0.08212,-0.38225 0.02922,-0.14488 0.05617,-0.2902 0.08214,-0.43569 0.02895,-0.16218 0.05598,-0.32471 0.08212,-0.48738 0.02873,-0.1788 0.05583,-0.35787 0.08213,-0.53705 0.02855,-0.19455 0.05572,-0.3893 0.08214,-0.58415 0.0284,-0.20937 0.05558,-0.41889 0.08212,-0.6285 0.02826,-0.22317 0.05549,-0.44647 0.08214,-0.66984 0.02814,-0.23587 0.05539,-0.47185 0.08213,-0.70788 0.02804,-0.24734 0.05528,-0.49477 0.08212,-0.74224 0.02793,-0.25749 0.05521,-0.51506 0.08214,-0.77267 0.02784,-0.26637 0.05512,-0.5328 0.08212,-0.79926 0.02775,-0.27376 0.05504,-0.54758 0.08213,-0.82142 0.02766,-0.27967 0.05493,-0.55939 0.0821,-0.83911 0.0276,-0.28411 0.0549,-0.56825 0.08215,-0.8524 0.02752,-0.28693 0.05483,-0.57388 0.08215,-0.86084 0.02745,-0.28822 0.05475,-0.57645 0.08215,-0.86468 0.02737,-0.28783 0.05467,-0.57566 0.08215,-0.86348 0.02729,-0.28588 0.05459,-0.57177 0.08215,-0.85763 0.02721,-0.28229 0.05452,-0.56457 0.08215,-0.84682 0.02712,-0.2771 0.05435,-0.55418 0.08206,-0.83123 0.02704,-0.27032 0.05434,-0.54064 0.08215,-0.81089 0.02697,-0.26203 0.05423,-0.52402 0.08215,-0.78595 0.02688,-0.2522 0.05414,-0.50436 0.08215,-0.75644 0.02678,-0.24092 0.05402,-0.48178 0.08215,-0.72254 0.02667,-0.22825 0.05389,-0.45645 0.08215,-0.68452 0.02655,-0.21427 0.05374,-0.42849 0.08215,-0.64253 0.02642,-0.199062 0.05358,-0.39803 0.08215,-0.596794 0.02626,-0.18266 0.05328,-0.36522 0.08206,-0.547502 0.02609,-0.165263 0.05309,-0.330395 0.08215,-0.495163 0.0259,-0.146841 0.05278,-0.293526 0.08215,-0.439711 0.02565,-0.127657 0.05234,-0.255139 0.08215,-0.381891 0.02534,-0.10773 0.05176,-0.215267 0.08215,-0.321681 0.02494,-0.08731 0.05088,-0.174478 0.08215,-0.259725 0.0244,-0.06652 0.04959,-0.133106 0.08215,-0.19603 0.02374,-0.04587 0.04776,-0.09281 0.08206,-0.131421 0.02332,-0.02624 0.04903,-0.05426 0.08215,-0.0659 0.02583,-0.009 0.05632,-0.009 0.08215,0 0.03312,0.01164 0.05882,0.03966 0.08215,0.0659 0.03432,0.0386 0.05839,0.08555 0.08215,0.131421 0.03257,0.06292 0.05775,0.129515 0.08215,0.19603 0.03127,0.08525 0.05723,0.17241 0.08215,0.259725 0.03038,0.106413 0.05674,0.213955 0.08206,0.321681 0.02979,0.126756 0.0565,0.254234 0.08215,0.381891 0.02938,0.146185 0.05625,0.29287 0.08215,0.439711 0.02906,0.164768 0.05605,0.329902 0.08215,0.495163 0.0288,0.182284 0.05588,0.36484 0.08215,0.547502 0.02859,0.198764 0.05573,0.397732 0.08215,0.596794 0.02841,0.21404 0.05561,0.42826 0.08215,0.64253 0.02825,0.22807 0.05539,0.45627 0.08206,0.68452 0.02812,0.24076 0.05537,0.48162 0.08215,0.72254 0.02801,0.25208 0.05528,0.50424 0.08215,0.75644 0.02792,0.26193 0.05518,0.52392 0.08215,0.78595 0.02781,0.27025 0.05509,0.54057 0.08215,0.81089 0.02772,0.27705 0.05502,0.55413 0.08215,0.83123 0.02764,0.28225 0.05494,0.56453 0.08215,0.84682 0.02756,0.28586 0.05488,0.57175 0.08215,0.85763 0.02746,0.28782 0.05471,0.57565 0.08206,0.86348 0.02739,0.28823 0.05471,0.57646 0.08215,0.86468 0.02733,0.28696 0.05463,0.57391 0.08215,0.86084 0.02725,0.28415 0.05456,0.56829 0.08215,0.8524 0.02718,0.27972 0.05448,0.55943 0.08215,0.83911 0.0271,0.27384 0.0544,0.54766 0.08215,0.82142 0.02701,0.26646 0.05432,0.53289 0.08215,0.79926 0.02692,0.2576 0.05414,0.51518 0.08206,0.77267 0.02683,0.24747 0.05412,0.4949 0.08215,0.74224 0.02676,0.23603 0.054,0.47201 0.08215,0.70788 0.02666,0.22337 0.05388,0.44667 0.08215,0.66984 0.02655,0.20961 0.05375,0.41913 0.08215,0.6285 0.02644,0.19485 0.05359,0.3896 0.08215,0.58415 0.02631,0.17918 0.05343,0.35825 0.08215,0.53705 0.02613,0.16266 0.05312,0.3252 0.08206,0.48738 0.02596,0.14549 0.05293,0.29082 0.08215,0.43569 0.02577,0.12775 0.05259,0.25533 0.08215,0.38225 0.02551,0.10954 0.05215,0.21888 0.08215,0.32727 0.0252,0.091 0.05155,0.18183 0.08215,0.2712 0.02481,0.0725 0.0507,0.14472 0.08215,0.21453 0.02432,0.054 0.04955,0.10804 0.08215,0.15744 0.02379,0.036 0.04863,0.0729 0.08205,0.1003 0.02397,0.0197 0.05161,0.0383 0.08215,0.0435 0.02729,0.004 0.05686,-9.9e-4 0.08215,-0.0123 0.03242,-0.0144 0.05825,-0.0415 0.08215,-0.0677 0.03285,-0.0361 0.05794,-0.0788 0.08215,-0.12113 0.03172,-0.0555 0.05739,-0.11436 0.08215,-0.1733 0.03071,-0.0731 0.05695,-0.14807 0.08215,-0.22325 0.02998,-0.0894 0.05651,-0.18007 0.08206,-0.27091 0.02949,-0.10481 0.0563,-0.21046 0.08215,-0.31627 0.02911,-0.11913 0.05606,-0.23879 0.08215,-0.35861 0.02882,-0.13237 0.05587,-0.26512 0.08215,-0.39802 0.02858,-0.14451 0.0557,-0.28929 0.08215,-0.43421 0.02839,-0.1555 0.05556,-0.31122 0.08215,-0.46704 0.02822,-0.16528 0.05542,-0.33074 0.08215,-0.49627 0.02807,-0.17383 0.05532,-0.34781 0.08215,-0.52183 0.02793,-0.18113 0.05511,-0.36237 0.08205,-0.54364 0.02781,-0.18715 0.05509,-0.37437 0.08215,-0.56162 0.02771,-0.19182 0.055,-0.38371 0.08215,-0.57562 0.02762,-0.19521 0.05491,-0.39045 0.08215,-0.58571 0.02753,-0.19733 0.05481,-0.39468 0.08215,-0.59204 0.02743,-0.19807 0.05474,-0.39615 0.08215,-0.59423 0.02736,-0.19762 0.05466,-0.39526 0.08215,-0.59286 0.02725,-0.19586 0.05448,-0.39174 0.08206,-0.58756 0.02717,-0.19293 0.05448,-0.38586 0.08215,-0.57873 0.0271,-0.18887 0.05438,-0.3777 0.08215,-0.56647 0.02701,-0.18362 0.0543,-0.36721 0.08215,-0.55071 0.02693,-0.1774 0.0542,-0.35475 0.08215,-0.532 0.02683,-0.17014 0.05409,-0.34024 0.08215,-0.51019 0.02675,-0.16201 0.05401,-0.32395 0.08215,-0.48572 0.02663,-0.15306 0.05379,-0.30602 0.08206,-0.45878 0.02653,-0.14337 0.05374,-0.28663 0.08215,-0.42964 0.02642,-0.133 0.05359,-0.26585 0.08215,-0.3984 0.0263,-0.12203 0.05343,-0.2439 0.08215,-0.36539 0.02617,-0.1107 0.05322,-0.2212 0.08215,-0.33121 0.026,-0.0989 0.05301,-0.19759 0.08215,-0.29564 0.02583,-0.087 0.05276,-0.17357 0.08215,-0.25936 0.02562,-0.0748 0.05235,-0.14919 0.08206,-0.22243 0.0254,-0.0627 0.05204,-0.12488 0.08215,-0.1854 0.02516,-0.0505 0.05164,-0.10062 0.08215,-0.14819 0.02493,-0.0388 0.05131,-0.0772 0.08215,-0.11147 0.02483,-0.0276 0.05143,-0.0545 0.08215,-0.0754 0.02518,-0.0171 0.05272,-0.0321 0.08215,-0.04 0.02653,-0.006 0.05493,-0.009 0.08215,-0.005 0.0286,0.003 0.05642,0.0141 0.08215,0.0271 0.02993,0.0151 0.05678,0.0361 0.08206,0.0581 0.03016,0.0263 0.05677,0.0566 0.08215,0.0875 0.02987,0.0364 0.05651,0.0754 0.08215,0.11488 0.02946,0.0454 0.05626,0.0925 0.08215,0.13994 0.02908,0.0533 0.05601,0.10778 0.08215,0.16258 0.02877,0.0603 0.05579,0.12143 0.08215,0.18282 0.0285,0.0663 0.05559,0.1333 0.08215,0.20045 0.02823,0.0714 0.05533,0.14321 0.08206,0.21517 0.02804,0.0755 0.05524,0.1513 0.08215,0.2272 0.02787,0.0786 0.05508,0.15745 0.08215,0.23635 0.02771,0.0807 0.05493,0.16173 0.08215,0.24267 0.02755,0.0819 0.0548,0.16398 0.08215,0.24599 0.02741,0.0822 0.05465,0.16445 0.08215,0.24663 0.02727,0.0815 0.05452,0.16296 0.08215,0.24432 0.02712,0.0799 0.05429,0.15973 0.08206,0.23937 0.02697,0.0774 0.05421,0.15466 0.08215,0.2317 0.02685,0.0741 0.05405,0.14799 0.08215,0.22158 0.0267,0.07 0.05388,0.13973 0.08215,0.20905 0.02655,0.0652 0.05369,0.13 0.08215,0.1943 0.02639,0.0596 0.05348,0.1189 0.08215,0.17742 0.02622,0.0535 0.05324,0.10675 0.08215,0.15883 0.026,0.0469 0.05291,0.0933 0.08205,0.13838 0.02584,0.0399 0.05274,0.0793 0.08215,0.11665 0.02568,0.0326 0.05256,0.0645 0.08215,0.0936 0.02561,0.0251 0.05256,0.0493 0.08215,0.0698 0.02573,0.0177 0.05303,0.0338 0.08215,0.045 0.02627,0.0108 0.05408,0.0174 0.08215,0.0199 0.02734,0.002 0.05532,4e-4 0.08215,-0.005 0.02858,-0.006 0.05618,-0.0173 0.08215,-0.0307 0.02937,-0.0152 0.05644,-0.0348 0.08206,-0.0558 0.02961,-0.0242 0.05652,-0.0517 0.08215,-0.0801 0.02953,-0.0327 0.0564,-0.0678 0.08215,-0.10363 0.02931,-0.0407 0.05622,-0.0832 0.08215,-0.12616 0.02906,-0.0482 0.05604,-0.0975 0.08215,-0.14737 0.0288,-0.0549 0.05587,-0.1108 0.08215,-0.16699 0.02858,-0.0611 0.0557,-0.12288 0.08215,-0.18494 0.02836,-0.0665 0.05546,-0.13355 0.08205,-0.20079 0.02819,-0.0713 0.05537,-0.14292 0.08215,-0.21473 0.02802,-0.0751 0.05524,-0.15062 0.08215,-0.22618 0.02788,-0.0783 0.05509,-0.15678 0.08215,-0.23535 0.02772,-0.0805 0.05495,-0.16118 0.08215,-0.24185 0.02757,-0.0818 0.05483,-0.16373 0.08215,-0.24563 0.02743,-0.0822 0.0547,-0.16448 0.08215,-0.24669 0.02728,-0.0817 0.05445,-0.1634 0.08206,-0.24497 0.02713,-0.0802 0.05437,-0.16033 0.08215,-0.2403 0.027,-0.0777 0.0542,-0.15539 0.08215,-0.23279 0.02684,-0.0744 0.05401,-0.14856 0.08215,-0.22242 0.02667,-0.07 0.0538,-0.13982 0.08215,-0.20914 0.02649,-0.0648 0.05356,-0.12932 0.08215,-0.19319 0.02627,-0.0587 0.05328,-0.11705 0.08215,-0.1745 0.02603,-0.0517 0.05284,-0.1032 0.08205,-0.15323 0.02577,-0.0441 0.05253,-0.0878 0.08215,-0.12941 0.02552,-0.0359 0.05213,-0.0712 0.08215,-0.10342 0.02532,-0.0271 0.05198,-0.0535 0.08215,-0.0751 0.02539,-0.0182 0.05263,-0.0348 0.08215,-0.045 0.02623,-0.009 0.05442,-0.0146 0.08215,-0.0135 0.0282,0.001 0.05635,0.009 0.08215,0.0204 0.0301,0.0133 0.05714,0.0334 0.08206,0.0549 0.03086,0.0267 0.05732,0.0583 0.08215,0.0906 0.03074,0.0401 0.05713,0.0834 0.08215,0.12725 0.03033,0.0531 0.05689,0.10836 0.08215,0.16405 0.02994,0.066 0.05664,0.1335 0.08215,0.20134 0.02957,0.0786 0.05643,0.15831 0.08215,0.23829 0.02929,0.0911 0.05623,0.18291 0.08215,0.27502 0.02904,0.1032 0.05609,0.20698 0.08215,0.31097 0.02882,0.11499 0.05585,0.23043 0.08205,0.34605 0.02864,0.12631 0.05579,0.25296 0.08215,0.37977 0.0285,0.13709 0.05568,0.27446 0.08215,0.41195 0.02836,0.14725 0.05557,0.29472 0.08215,0.44229 0.02823,0.15675 0.05546,0.31368 0.08215,0.47069 0.05476,0.33883 0.105717,0.67829 0.164304,1.01646"
         title="sin(x)*sin(5*x)"
         id="path74134"
         sodipodi:nodetypes="ccaaaaaaaaaaaaaaaaaaaaaaaaaaaaaaaaaaaaaaaaaaaaaaaaaaaaaaaaaaaaaaaaaaaaaaaaaaaaaaaaaaaaaaaaaaaaaaaaaaaaaaaaaaaaaaaaaaaaaaaaaaaaaaaaaaaaaaaaaaaaaaaaaaaaaaaaaaaaaaaaaaaaaaaaaaaaaaaaaaaaaaaaaaaaaaaaaaaaaaaaaaaaaaaaaaaaaaaaaaaaaaaaaaaaaaaaaaaaaaaaaaaaaaaaaaaaaaaaaaaaaaaaaaaaaaaaaaaaaaaaaaaaaaaaaaaaaaaaaaaaaaaaaaaacc" />
    </g>
  </g>
</svg>
